/* XPM */
static char *cefaabf9bf134468ea7354c40e5ebcd8BkYXE9vu1m1SjNJM[] = {
/* columns rows colors chars-per-pixel */
"64 64 29 1 ",
"  c #8D8735",
". c #8F8837",
"X c #8F8B38",
"o c #938B37",
"O c #938C3B",
"+ c #988F3B",
"@ c #97903F",
"# c #98903F",
"$ c #979140",
"% c #9C9544",
"& c #9F9847",
"* c #9C9548",
"= c #9F9948",
"- c #A09747",
"; c #A19947",
": c #A29C4B",
"> c #A49D50",
", c #A6A04F",
"< c #A8A04F",
"1 c #A7A250",
"2 c #AAA453",
"3 c #AEA857",
"4 c #AFAA58",
"5 c #B1AA56",
"6 c #B1AD5B",
"7 c #B5B15F",
"8 c #B6B361",
"9 c #B9B462",
"0 c #BEB866",
/* pixels */
"2888:%=69888894*%,788:899>**69988994**>998=8691**48888888**=888>",
"X296:$=68888884*%1881X,08>**49888896**>692O1992$%48888886*$>681$",
"OO39:%:68888883*&,9<XOO20:%*59977994**>92OO.291**48888888**:84X$",
"OOO4:::78888883*,<5oO@OO3:1-49999793:>>3o+OO$211=48888886*1>4XX$",
"++o;:3;68888884><<-o+OOo-:2:49778894=1:;o+O+o&,2>28888886;1;=XOO",
"#OO::>:68888884*:>-oO%oO::::67777894:>::O+%Oo&1:=38888886;1,:XX%",
"7-.:>;;68888883*->-.:9-.->;;59899795;-<:.-0: &<;=38888887&=:,X=0",
"69+:<;;68888893*->%-969%%>;-59977994=::%%959%%2&=38888886==1=@74",
"X6811==68888884==,,7< 28,:=&69977976=%>>93.>9,<&=48888884;&:,74X",
"$X68===48888884=&,73O&o57:&&69777795:-:03o-+27<&=68888887;==74O%",
"8=X6:==78888883%=,4X:9:o6<&&67799776-%:6O:9>X42==48888886==,6@%9",
"77$=1$=48888884%%,@=979%%:#&69797795%%>%-979=%,%$38888886%%,=%77",
"70711$=68878883%@,178777<>%-69887796-$:2777871,$%48888787=@:,777",
"88771==48888883==,8787777:;&57779795--:9778888,==38888885==:7787",
"9777=1=48887882:1,8888777,<:59777993-2:9778788,2=48888796=2,7977",
"777711=48878884=,,7888777:<:67777796:2:8978888,2:48888776:2:7978",
"7997,;&788=:083:::9778887===577::884==188888871==488:&896:=:8878",
"7797,&&48>XX>92=->9988887,==68:XX:04=%188888881==481Xo:97=&:8998",
"9999:;&71OO$O25=:>9788887,=&61X@+X27==:88888881%=43XO@O,7;&:7778",
"7777,&:<X+OOO$2--<7788887:&=2@@@@+X1==:88888881%=2@XOO@O1:=:7998",
"7979:&:,OOO+O+,&=28888887,&=1@@oXX@2==188888882=;1O@o@OO>:::7979",
"7797:%;,+O2>O@2&%18888887,%=2@X11XX1===88888882=;1@X,2XO2:%:7978",
"9797:$;, :09=O,&@18878887;@;1X,77,X2=$188888881$&1@&79<o<:%:6979",
"9799:$:,:0&18%,&@18888887,&;1;8,,8=2=%188888881$=1&7,:9:::$:7978",
"7797:::30:oO281=,,7788888:1=281XX172:1:78888881::292XX:04:,,7878",
"7997:2:7>o2,X64,1,7788888=4=55X15 57;2,7888888:1:45X14 26;3=7788",
"7997:1:2o109:O1:,,7788888:1:5X1071X2=1:887888811:1X:802X2=,=7978",
"7797:-::,9887=,=&10788888:==1:7777,1:==88788881==1=8888:,:&:7989",
"7777:-;58888882=&,7777888===48777774==:78788891%=28888784:;:7977",
"7999:--78878884%=,08778881=%48777776==,78788791&=48888786;;:7979",
"7797>--68887883==,7778888:==48870774==:8770879<;%48888884:::6979",
"6977:-:68888883%&,7784788===48887774==:87737791%&48888886=;:7992",
"X2071$=88888774&->99>O207:%%39777776&#,702.>09<-%39788806=$1684X",
"@@47:@=68888774$->0>o+O>9:%=69990776&#,72OOo>0>%%39788886=$184X@",
"@X+4:%=88888884=->3O$OO$5>--39777706;;,5$O$+o22--29988886==:4@O@",
"X@X=:4:68888882=<<*O+O+.->2:39777776:2<;.OOO+->2:38888886:21&X@O",
"@@O::4=40888883,<<;o+$+O-:<:49897786:<::OO$O+%:<:38888886;3::OO$",
"7& :::=88888883=:<%.:9-O:>:;49877894:::;.-0: :1:-38888886-::: &0",
"99@=1%=78888883=;<$-969$-<--59979795:%,%$969%$1--58888887;-::$76",
"O55,:==88888883%;>:92.37::;;59779795%::<73O29:1:=28880885;->>65o",
"@O77;:&58888884=-:02X%o47:;&59797796%::93o%O20>%=48888886:=:96o%",
"8%O7:&=78888882=:15o:0=O6,;&59977993:-:6O;0:O52&%78888886:=:5$%0",
"97@=1%=48888884%%<-;889%%,=%69887793;%:-%989;$2%=48888885=%::$88",
"797,:$%78888884%%><79896,,%%49899796-%>1698991:%%38888886=%:1688",
"9798=$=78888795%%>8879777,@%79887996-$:99987991$%38888885&%:8969",
"7977,,=48888793:::8869997:,=49777795->:86988791:=38887787:::7888",
"7788=2,48888782:2>8887787:2:29779793:5:8888878,1:38888705:2:6969",
"9787,,=77777885;><8788877,,,57777993->:9888878,,=48877884:>:9898",
"7797:;;508$=992:&,77788881==488$=884==:8888878,==487*$884:=:8998",
"7997:-;68%OX:92=&,7778888:==58:OX:86==:8888888,==30:OX$87==:6988",
"7997:;-7=O@Oo>3-=17887788:==5,O@XX14==:8888870,&&4,X$OO-6:=:7998",
"9797:-:2OOOO++1:=10880788,%=1@OXX+X1=%18888878,=&,X@X$+O1:%:7788",
"7777>-:<O$$OOO>-%17788888:==1X@++@O2==188888882=:,$OOOOO1:=:7977",
"7999:%;<OO52O$>=%17788888:%=1+X44Xo1:$=88888882%&2+O25OO2-%:7779",
"7797:+->O379:+2%$18888788:$=2X287,X2=$188888881@&2 ,992.>:%:7779",
"9797:-->>9$:0::-=28888888===110%&0,,=%188888881%&,:9:$02<:%:7979",
"7898:2:40%+O>02:,,7888888:2:40:OO=93:3:7888888,1:10,XX=85:3=8978",
"9798:1:7-.62O>5>,:9788888:1=41X24X,7:<,788888811:42X27X>6:2=8888",
"7788:,=1O299>+>:,,8878888::,2O209<@<=,,78888881::2X1084X2:::6998",
"7988:%=129887<>-=,8788887,&=,,0979,,==:78888881==1>888811:=:9978",
"9797:==48888993&=,8888887:==40868784=&,78888891;=29888884:=:9978",
"7797:==78878792&=18788887:%=59888786==:7888879<=&48788886=&:7878",
"77771%=68888885;=,7888887===49977785==:7888879>%&38888885:=:7979",
"9799>==68888882&=18888888,==48888884==,88888881==48888886==:8888"
};
