/* XPM */
static char *_5eaa1b66dd842e5a70292969c89dd592SNcQCbrRdJKxHSi[] = {
/* columns rows colors chars-per-pixel */
"16 16 2 1 ",
"  c gray80",
". c white",
/* pixels */
"                ",
" ...............",
" ...............",
" ...............",
" ...............",
" ...............",
" ...............",
" ...............",
" ...............",
" ...............",
" ...............",
" ...............",
" ...............",
" ...............",
" ...............",
" ..............."
};
