/* XPM */
static char *a6b9a2297f7a4f6bfcb530630e01e5deBEzjG2LEOt8PKkjn[] = {
/* columns rows colors chars-per-pixel */
"64 64 255 2 ",
"   c #010001",
".  c #0B0001",
"X  c #01010B",
"o  c #0B020A",
"O  c #140003",
"+  c #1C0005",
"@  c #17050A",
"#  c #1B020A",
"$  c #040413",
"%  c #080819",
"&  c #1A0516",
"*  c #111217",
"=  c #220105",
"-  c #23010A",
";  c #2B030B",
":  c #290808",
">  c #33040C",
",  c #37080B",
"<  c #38120D",
"1  c #240616",
"2  c #2B0314",
"3  c #2C051B",
"4  c #360716",
"5  c #33021C",
"6  c #2B1619",
"7  c #3B1813",
"8  c #33210F",
"9  c #0D1128",
"0  c #1B1628",
"q  c #290826",
"w  c #350323",
"e  c #3B0225",
"r  c #3C032A",
"t  c #380929",
"y  c #37152C",
"u  c #3E0830",
"i  c #281730",
"p  c #391637",
"a  c #022739",
"s  c #172A39",
"d  c #2C2936",
"f  c #46070C",
"g  c #500F0E",
"h  c #460516",
"j  c #481716",
"k  c #581916",
"l  c #701316",
"z  c #522719",
"x  c #682717",
"c  c #733019",
"v  c #410325",
"b  c #480924",
"n  c #43032C",
"m  c #49042E",
"M  c #450A2D",
"N  c #490C2D",
"B  c #55052D",
"V  c #4B1329",
"C  c #57182A",
"Z  c #450531",
"A  c #4B0632",
"S  c #450B32",
"D  c #4C0A33",
"F  c #4C0C39",
"G  c #520634",
"H  c #590734",
"J  c #520A35",
"K  c #56073A",
"L  c #5A073D",
"P  c #550A39",
"I  c #5B0A3C",
"U  c #4B1333",
"Y  c #481538",
"T  c #541434",
"R  c #551A34",
"E  c #5D133B",
"W  c #551839",
"Q  c #5C1C3A",
"!  c #6F0F2E",
"~  c #63073A",
"^  c #64133D",
"/  c #631C3D",
"(  c #4D2D34",
")  c #582737",
"_  c #5C2C3C",
"`  c #59333C",
"'  c #752F2B",
"]  c #64233B",
"[  c #69293D",
"{  c #63343E",
"}  c #6B4513",
"|  c #764425",
" . c #351D41",
".. c #023849",
"X. c #11314E",
"o. c #023956",
"O. c #34304D",
"+. c #0A3A66",
"@. c #393D68",
"#. c #590B40",
"$. c #5D0B41",
"%. c #4A1D42",
"&. c #591744",
"*. c #5D1B43",
"=. c #630C43",
"-. c #690C47",
";. c #770C4B",
":. c #641344",
">. c #6A1546",
",. c #641B44",
"<. c #6C1C45",
"1. c #64174A",
"2. c #6C134B",
"3. c #6D1B4C",
"4. c #781A47",
"5. c #71144D",
"6. c #731C4C",
"7. c #7A0E54",
"8. c #6D1652",
"9. c #771854",
"0. c #7C1C5B",
"q. c #482646",
"w. c #592847",
"e. c #47354F",
"r. c #5B3545",
"t. c #5C2858",
"y. c #5B3355",
"u. c #6C2343",
"i. c #6E2B41",
"p. c #66254D",
"a. c #732C45",
"s. c #75244A",
"d. c #77284A",
"f. c #7C2C4C",
"g. c #613542",
"h. c #633744",
"j. c #743344",
"k. c #7A3646",
"l. c #7B3649",
"z. c #7C3449",
"x. c #682951",
"c. c #762457",
"v. c #7C2352",
"b. c #613154",
"n. c #7D1D60",
"m. c #493767",
"M. c #533867",
"N. c #6F3369",
"B. c #004059",
"V. c #07476A",
"C. c #364C75",
"Z. c #514E6E",
"A. c #5E5463",
"S. c #4A4676",
"D. c #564979",
"F. c #6E4E72",
"G. c #8E0F17",
"H. c #8E2E1C",
"J. c #95142B",
"K. c #873826",
"L. c #903228",
"P. c #A53A29",
"I. c #C8122C",
"U. c #995E28",
"Y. c #934C30",
"T. c #B5482A",
"R. c #AE5034",
"E. c #B95939",
"W. c #C64D2E",
"Q. c #CA5739",
"!. c #D36739",
"~. c #E8673B",
"^. c #870847",
"/. c #881445",
"(. c #930F50",
"). c #83165B",
"_. c #AA1652",
"`. c #8C2D4D",
"'. c #852658",
"]. c #AE3453",
"[. c #861A63",
"{. c #951968",
"}. c #B4186C",
"|. c #832363",
" X c #8B2766",
".X c #94296A",
"XX c #983273",
"oX c #AD3073",
"OX c #D62F66",
"+X c #914450",
"@X c #B45E56",
"#X c #B76647",
"$X c #B27450",
"%X c #8C4F78",
"&X c #B45472",
"*X c #89617B",
"=X c #CB5E47",
"-X c #C96845",
";X c #D66948",
":X c #DA754B",
">X c #CA7053",
",X c #DA7955",
"<X c #E57949",
"1X c #F9774A",
"2X c #E57A56",
"3X c #DE4C71",
"4X c #C8726F",
"5X c #D78559",
"6X c #E78759",
"7X c #E88D58",
"8X c #DB9168",
"9X c #EE9066",
"0X c #EB9869",
"qX c #DBA674",
"wX c #EDA36B",
"eX c #ECAA76",
"rX c #F3AD78",
"tX c #EEB579",
"yX c #F3B37B",
"uX c #06558B",
"iX c #355988",
"pX c #106F9C",
"aX c #2A6690",
"sX c #4A5587",
"dX c #545085",
"fX c #685685",
"gX c #486A92",
"hX c #6C6A91",
"jX c #7379A3",
"kX c #CA308C",
"lX c #D738A2",
"zX c #906F93",
"xX c #A06697",
"cX c #AC6F92",
"vX c #CA5193",
"bX c #DE679E",
"nX c #D06FA8",
"mX c #1389AE",
"MX c #2D8DAF",
"NX c #6A809F",
"BX c #7489AB",
"VX c #B3898F",
"CX c #918AAC",
"ZX c #A998B8",
"AX c #B095B1",
"SX c #B9A5BC",
"DX c #F0B483",
"FX c #CB8BAE",
"GX c #F986B4",
"HX c #C5A4BD",
"JX c #EFC185",
"KX c #F4C489",
"LX c #B6AFC9",
"PX c #FD92C9",
"IX c #C9AAC5",
/* pixels */
"q.( e.( ( ( ( R V t t t e e u M U U U U Y U V N D N S S S N S D S S S S U Y q.q.q.w.q.%.Y Y Y u S r Z r n n m v r v v r w w w q ",
"` ( ` ( ` ) ) ) V e v e e e v V C T R T T T J J J J J N B N D G D D D J F W &.w.w.w.r.q.W %.D D A A A A m m m n v n v n v r r r ",
"( ` ` ( ) ) ) ) V v e e v v N V C Q R C T T T T J T J J J J G G J D G J W %.&.w.w.r.w.) w.W t n G m A A A m A m m m n v n n v e ",
"r.` ) ` ) { ) ) V t v e v M U R ) Q ) R Q R Q T T T J T J J U T P J J P W W w.w.y.y.t.w.%.&.w w N D G G A A A m m m n n v n r e ",
"( r.` { { ) ) R U v v e b N T ) ] Q ] Q Q Q Q Q Q T E T H E J H P P P P &.&.w.w.y.b.w.w.) w.M 5 v G J N G D G m Z m m m n v v r ",
"r.` ` ` { _ ) R U M v v M T Q ] [ / ] / ] / Q / Q ^ T E T H I P P P W I W w.w.y.b.b.y.w.&.&.n 5 e D J G G G G N A A A m n n n r ",
"r.` ` g.{ ) C U M t v M N C ] [ [ [ [ / ] ] / / / ^ ^ E / E E E E I I E Q u.p.y.y.y.x.w.w.&.M 5 5 G J P G J J G A A A m m m v r ",
"r.` r.` ) ) R V M b M N T ) [ [ [ [ [ [ u.[ ] / / / / / ^ E E =.I ^ I E *.w.p.b.x.b.w.w.w.*.J 5 5 v H P J J B G G A A A Z m m r ",
"r.r.r.{ _ ) U M M v M V R [ [ { i.i.i.i.i.i.u.<.] <./ / ,.^ ^ ^ ^ I ^ ,.Q w.x.b.x.b.p.w.*.*.I H h 2 m I J H J G D A N A m A m u ",
"r.h.{ _ _ ) U M b M N U Q [ j.j.i.i.i.i.i.u.u.u.u./ u./ ,./ ,.:.^ :.^ *.,.p.x.b.x.b.x.p.1.*.:.=.m 5 e K P P P G J G G N G m m u ",
"r.h.r.{ _ R U b n m N T [ [ j.a.a.j.j.d.a.i.i.u.u.u.<.<.<.^ <.:.>.^ :.,.p.p.x.x.x.x.p.p.,.*.$.~ B v v G I P P H P G G J A A A u ",
"r.h.r.r.) W S M Z M T Q [ { j.j.j.j.j.j.a.d.a.a.a.u.u.s.<.<.>.<.<.>.:.:.3.x.x.x.p.p.p.p.,.$.:.=.B B v G I H I H J H G D J D A u ",
"r.h.h.r.( Y S M n M T / j.[ k.k.k.j.j.a.`.[ f.[ s.s.s.<.3.<.3.<.>.>.>.>.3.p.x.x.x.x.x.3.1.:.:.=.~ B B H L I L I K P P G J A m D ",
"h.h.` r.R U S n M S T ] j.k.k.k.k.k.z.z.k.f.f.d.d.a.a.s.s.3.6.<.2.6.2.>.3.p.x.x.p.p.x.3.3.:.$.-.~ H B ~ =.$.I L H K P H H G G S ",
"h.g.g._ R Y M S n U Q [ k.k.k.k.k.k.z.z.f.f.f.f.d.d.s.s.s.s.6.6.3.3.5.6.3.3.x.3.s.x.p.3.1.>.:.;.^.B B ~ ^ I ~ I L I K P G H D D ",
"h.g.w.) W S M N N J ] { k.k.k.k.`.z.z.z.f.z.f.f.f.s.'.d.s.s.s.s.6.6.6.>.3.s.c.x.9.s.8.3.2.>.>.;.^.~ B ~ $.=.$.I ~ K K P P P G S ",
"r.g._ ) Y S M M D T ] j.k.l.l.l.l.z.a.d.f.z.f.f.f.f.c.v.f.v.s.9.6.6.7.4.>.^ ,.,.<.c.c.3.2.2.2.;.^.~ B ~ =.=.=.I I I I L P H H S ",
"g.g.w.W U N M D J W ] j.l.l.z.l.a.s.<.u.a.`.'.f.f.f.f.c.v.v.v.v.v.0.4.! f h g f , b 1.s.5.2.2.5.(.^.! H L =.=.=.=.I I L K K K F ",
"g.g.w.Y U N N D J ] j.l.k.l.j.d.u.p.<.<.d.f.z.a.f.'.f.v.v.v.v.v.v.'.B f f f f k g k C v.8.5.5.2.(._.! H G =.=.=.=.I $.L K K K F ",
"g.g.) W S M N D W u.] j.k.a.u.u.<.,.1.T y - - - b u.v.'.v.v.v.v. X_.g , = > , f x x x ' s.5.5.5.7.}.(.~ A G >.=.=.=.$.L I I K P ",
"g.w._ Y N M U D Q [ > C a.u.,.,.:./ 2 O O . . O . O 4 u.'.v.v.v.oXJ., > ; > > g c c x c j.9.9.5.;.[.}.^.$.A $.>.=.=.=.=.I I K P ",
"w.g.) U S M D T Q Q - e p.E ^ ~ ^ 3   . O O + + + + O ; s.'.'.v.vXJ.f k f k c L.Y.Y.| | ' 9.5.9.7.;.}._.! ~ ~ 2.=.=.=.=.I I L F ",
"_ _ ) U S D D T / Q 2 2 E E I ^ t . . O + + O O @ + = + E '.'.v.vX].k Y.Y.E.:X,X:X:X#XU.Y.6.9.9.7.8.{._.^.;.;.-.-.-.=.=.$.$.I F ",
"w._ Y D D D D J Q T 5 # J I $.T O   ; l H.P.Y.K.k = ; = b  X'.).vXbXc Y.R.E.Q.<X,X:X5X$XU.f.0.9.8.8.).}.^.^.^.-.2.=.=.=.=.$.$.W ",
"R W U S Z D D D E D 2 . b I :.V . + l G.P.W.Q.~.!.x = ; , `.'.4.vX&X' ' l R.=X>XY.E.#X#XU.' 0.0.n.7.n.}.(.^.^.-.2.:.=.=.=.=.$.#.",
"Y S N S M D S A W N 2 . 5 ^ u.4 . > G.G.P.T.Q.Q.~.R.+ = : _. X).oX&Xj J.P.R.=X>XY.#X6X#XY.#X0.0.7.n.7.kX_.(.(.;.2.-.2.>.=.=.$.#.",
"u S Z n Z S D D J b # . 3 / i.2 O 4 x ' R.-XR.R.-X-X< ; = /.XX'. XbX`.vX+Xj P.=X=X;X<X2X6X2X[.0.n.0.7.lXoX/.(.7.8.2.>.=.1.=.$.#.",
"u Z S Z M A S D G M     3 s.f.1 # j ' < k Y.x #X>XQ.j h = ! oX'.|.bXPXnXC C G.;X2X2X0X9X<X;X|.).0.0.7.lXOX(.(.7.2.2.2.=.=.-.$.#.",
"u u Z Z S S D m D S @   4 z.`.V # x ! f H.T.' ;X6X2Xk , : f }..X).vXGXbX&X' Y.0X<X9XrXwX2X&X|.n.0.n.7.kXOX(.(.^.8.5.-.1.-.=.=.#.",
"t M Z Z m Z D A G P h + V f.`.<.# ! L.l =X;X=X2X9X1Xx , f g _..X'.XXOXOX&X#XK.4X9X6XwXrX4X|. X|.0.0.8.oXkX(.(.).-.5.8.-.1.>.$.#.",
"u M M Z Z Z A G D G 5 - V 4.`.L.g L.L.x =X;X;X9X9X~.P.g , l I.oX'. X%X3XvXL.Y.R.~.6XrXyX@X[. Xn.n.n.7.{.kX(./.;.8.5.8.2.1.-.1.#.",
"u r Z n A D J D P H r.V C 4.0._.l ! ] l P.E.>X6X~.~.T., ; J.3X{. X.X XXXnX].L.P.6XrXtXrX&X|. X|.|.n.n.n.}.(./.;.=.7.2.2.2.$.=.&.",
"u Z Z Z 5 2 3 1 3 2 < j > h h h ; V [ c T.!.!.~.~.Q., + ; G.bXoX|..X.X[.XXnXl Y.7XrXeXwX4X|. X|.n.n.n.n.}.}.;.;.$.8.2.2.8.,.4 #.",
"u r Z S &         . * * = ; > ; + > l x Y.5X5X!.~.H.f > f G.OXbX.X X.X XXX3Xl K.5X5X0X0X4X|. X X Xc.n.n.{.}.}._.;.8.8.8.P 4 2 &.",
"u r n Z &     . # & 6 ( ) , , > = + > ) Y.R.Q.E.!.H.; ; l G.3XPXvX X X.X XJ.H.<X0XwX0XrX4Xn.XXc.c. Xn.n.7.{.}.}.(.-.2.N : : N :.",
"u r M N &     . . . 8 h.VX( 4 > = O : ( h.| c H.H.f / f g I.bXPXvX{..X6.4 ; > c $XqXtXKX4X6 w.t u *.9.c.n.^.}.}.(.7.I 7 4 4 H 1.",
"u u r S 3       @ 6 6 6 ` * 4 > = O > C g g > = < ' ]._.l I.3XGXvX{.<.- ; ; + O + : z ` ( . . O - - , V s.0./.! C V P W : ; P 1.",
"u r Z A t % * 0 M V   X   . P {.'.+ ; h > 2 1 E .X&X&X/._.I.3XGXnXM - - = = - + + + O . + + . . . 2 7 7 &.V < : j 7 4 : < U -.&.",
"u r Z Z A 3 r.H J G o     o ~ 7.5.5 = = 3 x.4.XXcXcXHX`._._.bXGXC . # # + + + = + + - : = + .     @ < : > : : , < < , 7 R :.2.&.",
"u n r Z Z U P A J I &     # -.=.N 5 # M x.c. XxXxXFXHXzX! ^.].+X. o O O + + O - + + + ; + + + O     o : j 1 @ = g E.' T 2.2.2.&.",
"r Z n Z Z Z A G P P 5     1 =.H m 5 &.c.c.8.zXfXxX*XIX*Xb ! b O . . . . O + + O + = + + = ; O         . @ . : l E.9X9X`.2.2.>.*.",
"r r n Z Z A A A A P r .   & -.G m N 8.N.n.N.m.zXxX*XFX*XU V 2 o o . o O O + + + + + = + : : < : + O . . . : l W.6X9XwX&X>.5.2.:.",
"r n n n m A G G A L A     # -.=.E *.c.c.n.D.M.%X%XIXIXVXq.p 9 X     . . O O + + + + + ; + < k g f < : : f K.!.<X9XrXeX4X>.6.:.*.",
"u r n Z Z A A A F L D .   & -.=.1.*.n.c.N.M.t.N.xXSXLXAXe.d & X X       . . O + = - + + O , g f f , g K.!.6X7X7X0XtXrX8X6.2.2.*.",
"e n n Z m Z A A P P A o   & =.1.1.1.n.n.N.t.D.M.cXLXHXAX@.O.9 X X           . . + - : O . < g , g x U.7X7X7X7XtXtXtXDX5X4.3.2.*.",
"e r n n Z A A G A P P o   o $.-.%.%.N.n.fXD.S.N.LXZXHXIXm.X.a X X X         . . + O @ : O g z x K.T.<XwXtXwXyX0X5XR.>X7X;X`.>.*.",
"r r r m Z Z Z G P P L o   . #.&.%.&.fXN.dXdXsXfXLXZXAXIXm.+.+.X X X X       . . O + # , c T.W.!.:XwXwXJXJXyX$Xx R.R.6X0X6X>X6.*.",
"r r n Z Z Z Z A A F L @   o F %.#.t.M.N.M.M.O.%XIXzXAXHXZ.X.pX%   X           O O + k T.6X6X<XwXJXKXJXtXyXqXj : Y.=X-X0X6X,X`.&.",
"w r r u Z Z Z A A G #.&     W Y #.M.D.fXdXm. .zXLXhXZXIXZ.X.uXX.o X X           - x T.2X0X7XtXKXKXKXJXJXqXz @ * 8 R.-X:X5X;XK.#.",
"t r r r n Z A A A G #.& X   Y S &.M.D.dXiX .%.zXZXhXZXLXZ.X.uXD.( X $         @ R K.-X9X6XwXtXKXKXKXKXtX| @ : O : x !.6X;XE.C u ",
"e r r n n Z m A G A F w % % S p &.D.D.dXsX .%.CXCXfXZXZXZ.X.uXzXF.  $ X   . % d ) ' E.:X<X0XyXDXKXKXJX| : : O O . : z ' Y.' ; 1 ",
"e e n r n n n A A F K 5 % o 5 u t.D.dXgXiXu t.LXhXfXxXZXC.+.uXcXcX$ $ $   $ ..X.d ` Y.Q.5XtXDXDXJXtXU.< < O O .     O = : , ; 1 ",
"e r e r r Z Z Z A A C ( q - 4 p t.sXdXsX .y Z.CXsXhXzXZXS.+.aXnXVX% $ $ X   X a X.O.` U.2XwXwXeX8X!.U.8 z + -   . 1 @ = = = ; # ",
"w e r r n r n m A G g y i i 5 p M.sXdXm.0 i BXjXD.dXjXZXjXV.aXnXFX0 $ $ X       s X.X.| ;X7X>X+X} U.c : : 6 E o t 3.1 . + . + # ",
"w e e e r r n n Z m b y d 0 o e.m.sXS. .q S.hXM.m.M.jXCXCXaXgXcXFX .X $ X         * a d Y.{ :   } } . O : 3 9.E ,.2.t   .   . o ",
"q w e r r n n n n m M y i 0 & p M.sXq.t q C.gXdXm.hXjXzXzXNXCXzXzXy.X $                         8 U.: O : V 8.2.:.=.E o   @ 5 t ",
"w w t e e r r Z n n t y s & q p m.S.%.y p S.C.C.C.A.A.hXBXBXNXfXjXF.  X                           8 7 O   F -.=.=.$.=.G e G #.F ",
"w w w e e r n r n Z S 0 *   p t.S.S.y w 2 1 * s s s ( d o.BXhXS.hXF.  X X                               X A -.$.=.$.L #.$.L K F ",
"w w w e e e r n n n A q      .C.C.% @ 5 5 i s s ..O.e.O.gXBXhXZ.D.%X& X X                                 n -.$.$.$.L L L K G S ",
"q w w e e e e r r n Z r   X $ 0 0 # 5 q 0 X.a a ....X.A.F.hXfXZ.m.N.p                                     e =.#.L L K K G F G Z ",
"q w w w e e e r r n n h = + 2 2 2 4 3 0 ....B.B.B.B.aXNXA.F.F.C.iXx.Y                                     w =.K #.#.K K G G A Z ",
"w w w 5 w w w e r n 4 f f > 4 4 2 1 0 a ..B.B.V.V.aXaXgXZ.Z.Z.aXiX%.Y X                                   3 $.L L G F G G A G Z ",
"w 5 w w e w e r r v w 2 > ; 3 1 * 9 a ..B.B.B.V.mXMXmXMXMXNXgXaXsXF U o                                   t $.K L G K F G G A Z ",
"1 3 q q q w w q e r q % q q 0 9 a a a ..B.mXmX......C.aXmXmXaXuXO.u i % $ $ % % $ % % $ $ $ $ $ $ $ $ $ $ u #.F F F S u u u u t "
};
