/* XPM */
static char *caf66c55235441c1f3bea35447765356gQ669IoZfQRVQa4G[] = {
/* columns rows colors chars-per-pixel */
"64 64 244 2 ",
"   c #04050C",
".  c #09060C",
"X  c #0B090E",
"o  c #030309",
"O  c #120B0D",
"+  c #0D0C11",
"@  c #120E13",
"#  c #0E1217",
"$  c #151116",
"%  c #1A1415",
"&  c #151419",
"*  c #1A151B",
"=  c #16191D",
"-  c #1C1A1D",
";  c #231C1C",
":  c #271B19",
">  c #2A211E",
",  c #22201F",
"<  c #35231E",
"1  c #161A21",
"2  c #1C1D23",
"3  c #1A1F28",
"4  c #0C1621",
"5  c #211D22",
"6  c #1E2125",
"7  c #1E222B",
"8  c #1D2932",
"9  c #222224",
"0  c #2B2525",
"q  c #22252D",
"w  c #2C2A2B",
"e  c #292828",
"r  c #322624",
"t  c #332926",
"y  c #332D2C",
"u  c #3B2C27",
"i  c #3A312D",
"p  c #242C34",
"a  c #2A2E35",
"s  c #252933",
"d  c #322F31",
"f  c #26323B",
"g  c #2A333C",
"h  c #293238",
"j  c #343333",
"k  c #3C3534",
"l  c #3B3A3A",
"z  c #1C201E",
"x  c #432E28",
"c  c #43332D",
"v  c #4B362B",
"b  c #573A2D",
"n  c #443631",
"m  c #423C3B",
"M  c #483A35",
"N  c #563D34",
"B  c #3D413E",
"V  c #4A423D",
"C  c #4A4138",
"Z  c #53453B",
"A  c #594538",
"S  c #664638",
"D  c #6D4938",
"F  c #2A3640",
"G  c #2C3A44",
"H  c #2E3D49",
"J  c #263242",
"K  c #313D45",
"L  c #313F49",
"P  c #383B40",
"I  c #2B3F50",
"U  c #483F40",
"Y  c #33424C",
"T  c #3E4448",
"R  c #354552",
"E  c #3A4A55",
"W  c #3C4D5A",
"Q  c #374855",
"!  c #2F4250",
"~  c #3E4F60",
"^  c #4C4443",
"/  c #4A4847",
"(  c #544A44",
")  c #554D4B",
"_  c #584B46",
"`  c #5A534C",
"'  c #44525C",
"]  c #5D5553",
"[  c #5B5756",
"{  c #414F5A",
"}  c #675548",
"|  c #795848",
" . c #655C59",
".. c #655B56",
"X. c #6C4E41",
"o. c #6A615C",
"O. c #796758",
"+. c #7F634F",
"@. c #435563",
"#. c #555E65",
"$. c #6C6563",
"%. c #696964",
"&. c #756E6A",
"*. c #756B66",
"=. c #7C736D",
"-. c #78736A",
";. c #7C7471",
":. c #797673",
">. c #616B76",
",. c #5B625D",
"<. c #875A3E",
"1. c #865946",
"2. c #8F5D49",
"3. c #8B634B",
"4. c #886956",
"5. c #976755",
"6. c #8C715E",
"7. c #99745B",
"8. c #93684C",
"9. c #A3775A",
"0. c #A2724E",
"q. c #8A7D6E",
"w. c #85776A",
"e. c #997A64",
"r. c #837A74",
"t. c #857D79",
"y. c #887F7B",
"u. c #877C72",
"i. c #8E7769",
"p. c #A77B63",
"a. c #B07867",
"s. c #7D8178",
"d. c #8E8274",
"f. c #8C837D",
"g. c #84857B",
"h. c #928679",
"j. c #958A7C",
"k. c #96887A",
"l. c #9B826F",
"z. c #A98269",
"x. c #B4886A",
"c. c #AB8872",
"v. c #B28B74",
"b. c #B98A74",
"n. c #BE9274",
"m. c #B8947A",
"M. c #B69370",
"N. c #C68D7A",
"B. c #C49A7B",
"V. c #C89A7A",
"C. c #CA9870",
"Z. c #C9A07E",
"A. c #D2A17C",
"S. c #8C8482",
"D. c #898B84",
"F. c #948B85",
"G. c #968F8B",
"H. c #988C83",
"J. c #8D9387",
"K. c #9B9183",
"L. c #93958A",
"P. c #9C938C",
"I. c #97988C",
"U. c #9D9592",
"Y. c #9C9D92",
"T. c #A19485",
"R. c #A2968A",
"E. c #A99A8D",
"W. c #A49B94",
"Q. c #A99E93",
"!. c #A49A95",
"~. c #BC9783",
"^. c #ACA49C",
"/. c #A9A398",
"(. c #B2A69C",
"). c #B5AA9C",
"_. c #BBAD9C",
"`. c #B4A595",
"'. c #B8A996",
"]. c #AEAAA2",
"[. c #B4ACA4",
"{. c #BAAEA3",
"}. c #B9AFA8",
"|. c #B4ADA7",
" X c #BBB1A5",
".X c #BCB4AB",
"XX c #B6B3AB",
"oX c #BCB8B0",
"OX c #9CA094",
"+X c #CA9D85",
"@X c #D49F83",
"#X c #CCA388",
"$X c #D2A385",
"%X c #D5AB8B",
"&X c #DAAB8C",
"*X c #D8A787",
"=X c #D8AA94",
"-X c #C1B19F",
";X c #DDB393",
":X c #DAB59B",
">X c #CFAD93",
",X c #E2B395",
"<X c #E3B995",
"1X c #E5BA9B",
"2X c #E6B79A",
"3X c #E2AE8D",
"4X c #C2B5AC",
"5X c #C2BAAE",
"6X c #CBBCAC",
"7X c #C7B7A5",
"8X c #D7BBA5",
"9X c #C5BDB2",
"0X c #CABEB3",
"qX c #C6BCB5",
"wX c #E7BCA2",
"eX c #ECC29D",
"rX c #D6C1AB",
"tX c #CAC1B6",
"yX c #CDC4BB",
"uX c #C4C1B7",
"iX c #D4C5B4",
"pX c #D2C5BB",
"aX c #D2C9BE",
"sX c #DBCBBA",
"dX c #E6C2AA",
"fX c #F3C7A7",
"gX c #E2D2BE",
"hX c #F0CEB5",
"jX c #D5CCC3",
"kX c #DACEC4",
"lX c #D8CFC8",
"zX c #D3C9C3",
"xX c #DAD1C6",
"cX c #DCD3CB",
"vX c #D8D2CA",
"bX c #D7D0C9",
"nX c #E4D9CC",
"mX c #E0D7D0",
"MX c #E3DAD3",
"NX c #EBE1D5",
"BX c #EBE3D9",
"VX c #F0E7DD",
"CX c #FDFDFB",
"ZX c #F5F1E6",
/* pixels */
"5X5X6X6X6X0XtXiXaXsXsXnX*.E.pXqXjXmXkXm {.nXjXaXyXtX5X5X.X.X X X X X XXX X X5X5XqXyXcXy.m =. .r.y.y.m d (.}.qXqX}.mXlXlXmXzXzXlX",
"6X6X6X9XiX0XiXpXsXkXnXNXw.y.[.(.aXMXxXm [.nXjXaXaXuXuX5X5X.X.X X X X X XoX5X5XuXqX0XmXy.^ f.;.y.U.G.m d (.(.qXqX}.MXkXlXmXlXzXlX",
"6X0X0XtX0XpXiXsXaXsXxXNXw.&.h.f.[.MXnXU /.NXkXaXaXtXtX5X5X.X.X.X X X.X.X.X X5XuX0XzXcXy.) U.S.F.^.!.n d }.}.qXqX}.MXkXmXmXlXzXlX",
"0XtX0XtX0XyXaXpXjXkXxXNXy. .=.&.f.yX0Xm !.NXbXjXaXyXtXuX5X.X5X.XoX.X.X.XuXuXuXtX0XpXmXt. .!.S.F.^.^.m m }.}.pXqX}.MXlXmXmXzXzXlX",
"tXtXtXpXiX0XpXaXkXkXkXVXH._ $. .o.Q.^.m P.BXbXkXaXyXtXuX5X5X5X.X5X.X.X7X7XuXuXrXzXzXmXy. .U.S.S.!.!.k m }.|.qXqX4XMXcXcXmXlXzXlX",
"0XiXyXpXpXzXaXjXkXkXkXBXU.m .._ / =.F.k P.BXxXkXaXaXyXuXuX9X5XoX5XoX5X5XuXuXtXyXzXzXMXy. .S.y.t.U.G.k U 4X}.zXqXqXMXlXmXmXzXzXmX",
"yXyXpXyXaXyXaXaXkXkXcXBX!.m ` ) ^ ` ;.k P.BXlXlXaXaXyXtXuX6X9X9X5X5X5XuXuXtXyXaXzXlXMXS. .S.r.r.S.r.d U }.|.zX4X4XMXcXmXmXzXzXmX",
"yXaXaXaXaXzXjXjXkXkXcXMX(.^  .) ^ ) *.i F.BXcXkXxXaXyXyXtX9X9X9X6XuXuXuXtXtXaXaXlXmXVXS. .y.r.&.r.$.y U 4X|.zX4XqXMXmXmXmXlXzXmX",
"aXaXaXaXaXxXxXaXkXkXxXMX.X] ;.o.`  .=.n y.BXcXlXzXzXzXuXzXqXuXqXuX6XuXtXqXzXlXkXlXqXqXt.$.y.$.$.$.] d ) 4X}.kX4XqXBXmXmXmXlXlXmX",
"aXjXaXaXaXaXaXxXkXkXkXmX0X*.H.y.&.r.S.U r.BXlXlXzXzXzXzXuXqXyXuXuXuXqXtXzXzXP.( U i 5 r M o.o. . .) d U 4X}.zX}.qXMXmXmXmXlXlXmX",
"aXaXaXaXaXxXaXxXkXcXnXnXaXF.].!.H.R.E.) ;.NXlXlXjXzXzXyXzXqXyXuXqXyXyXyXkXw.% . O ; t r 5 r U  .] ) d ) 4X}.kX}.zXMXmXmXmXlXlXmX",
"aXaXaXjXaXjXxXaXkXkXkXnXkX/.4X{.R.^.^. .=.MXlXlXjXjXzXzXuXzXuXyXzXuXyXvXH.: : ; r x t ; r u r )  .^ r _ 4X4XzX}.zXMXcXMXmXzXlXmX",
"aXaXvXaXjXjXjXxXxXxXxXcXkXW.^.Q.h.U.Q.$.;.VXvXvXbXzXzXzXyXzXuXyXuXzXzX9Xc 5 r S b.a.X.x : r u n  .) r ] qX}.lX}.zXMXmXMXmXlXlXmX",
"vXaXaXvXxXaXxXjXxXxXxXnXaXr.t.t.$.&.O.( ( R.bXcXmXbXzXzXzXyXzXuXzXuXcXw.< N x 9.1XwX%XN.| : : r ] _ d ] qX}.lX}.zXMXmXMXmXlXlXMX",
"aXvXgXvXjXxXjXxXxXxXxXcXaX$.] ] ` N A n r > ` w.D.uXvXzXzXyXyXyXzXzXuXM x n x N.wXdXwXwXwXm.r @ U ) d $.qX}.lX(.zXMXmXmXmXlXcXmX",
"aXaXvXaXjXxXxXxXxXxXcXcXjX$.^ V i c A S c r x u x C OXmXjXjXvXxXbXMX/.; i < S =X:X8XwXwXwXfX+X5 x ) d $.qX}.zX^.lXmXmXmXcXlXcXMX",
"aXaXyXyXyXyXaXzXjXkXkXjXaX$.V i ; c N A S X.X.M C u C /.].j.s.-.$.*.m : : % 4.z.X.b 5.@Xc.X.4.n s ) r $.qX[.zX^.zXmXlXmXmXlXlXmX",
"I.OXQ.Q.P.S.;.*.&.g.F.r.o...l n ( z.>X>X:X:Xe.b u v v A s.%.` B l V 0 * * u x.5.S N 2.V.S u 1.t 5 U s &.qX}.pX!.lXmXmXMXlXlXlXmX",
"h.F.P.P.P.F.f.&.[ V j y w k m c e.dXhXdX8XwX#X| C u u t o.*.o.[ ` [ 0 % % | 3X+Xa.~.&XwXa.p.B.i * U r &.qX[.pXQ.lXmXlXmXlXzXcXmX",
"-.g.g.f.t.r.&.$.` B y e e w Z v p.hXhXdXdXdX:Xv.u < , > y y y k C m ; : : | 3XwX2X2X=X2X=XwX;Xt 5 n q &.4X}.0XQ.lXmXcXmXlXlXcXmX",
"V ^ ^ / ^ ) ) ) ) ) ` ` ] ] l N v.#X#XdX8Xv.v.+XA O % 0 s.J.J.I.I.Y.g.: : S $X,XwX,X+X=X*X;X+X> q d 0 r.}.[.0XQ.lXmXlXmXlXlXlXmX",
"jXaXxXjXkXkXxXbXxXxXvXvXmXW.d n a.6.X.+X$X1.| 6.z.u O % ].uXuXoXXXXX^.y O : x.=X@Xa.D S | A.e.e s r 5 &.4X^.0X!.mXlXmXmXlXlXlXmX",
"yXyXyXaXaXaXyXyXaXyXaXyXxXD.t n ~.c.p.=X*X9.p.p.A.+.$ O J.XX].].^.Y.Y.k X % 2.=Xa.D 2.5.| z.A , 5 d 5 r.}.!.}.U.cXcXcXmXlXzXlXmX",
"tXtXtXtXtXtXtXyXtXtXtXtXxXg.9 n 8XfXwXwX=X&X2XwX&X4.: B ].OX].OXOXL.L.k @ $ A a.a.N.a.5.M.6.0 , 5 s * y.[.U.Q.H.mXlXlXmXlXzXlXcX",
"tXuXuXtXyXtXuXtXtXtXtXtX0Xu.5 t =X@X+X=X+Xa.b.=X$Xe.r %.].OXOXOXI.L.g.> % > < A 8.Z.M.z.8.0 w e 5 0 2 t.^.P.Q.H.cXlXlXcXlXlXlXcX",
"uXuXuX6X9X9XuX0XuX9XtXuX=XO.w w c.9.a.~.a.m.p.5.+Xa.. &.OXOXOXI.J.L.:.. u <.<.A < D l.l.A z w , 5 9 - t.Q.G.E.F.cXzXlXcXzXzXlXlX",
"9X6X5X6X9X6X9XqX.XuXuXuX8X1.e 2 4.2X+X+XN.v.x.Z.;X4.% g.OXL.J.J.J.J.s.y b 0.C.x.3.b v 4.C e e , 5 e * t.!.H.R.H.cXzXlXcXzXzXlXlX",
"oXoX5XoXoX9X4XoXuXuXoXuX2X1.e w y =XhXwX<X%X&X<Xe.q 7 J.OXJ.J.J.J.L./ = C z.C.A.eXA.M.%Xv z e , 5 9 * t.!.G.T.H.mXzXzXlXzXzXlXzX",
".XoXoX4X4XoX4XqX XuXoXtX3X2.w l 9 k >XdX<X<Xm.} 7 7 6 ' I.J.I.J.s.s.6 6 % = , C } l.M.B.n - 9 5 9 9 - y.U.F.T.P.cXzXzXlXzXzXzXzX",
".X.X.X.X}.oX.XoX.X X.XrXfX4.w j j - k c.p.} e 4 8 H Y 8 ,.I.g.s.%.w 6 e z z z = # # = z q 2 - - 5 5 * S.G.F.T.G.cXzXlXzXzXzXzXzX",
"}.}..X.X.X}.4XXX.XXXXXrX1X*Xb.} w w 6 l...# 8 Y E W R F G s.g.%.e z 6 9 e 6 z 6 6 6 2 6 6 6 - 2 2 2 - S.F.S.H.G.cXzXlXlXyXzXlXzX",
"|.}.|.}.}.}.}..X XXX7XfX*X$X@X3.e e j T p Y W W Y Y Y Y f T s.B # z , 8 6 6 z z 6 9 6 z 6 q 2 - - $ * F.F.y.H.U.cXzXlXlXyXzXzXpX",
"[.[.[.|.}.}.}.|.}.|.8X2Xb.x.@X| z h h 8 Y ' ! Y ! ! H G Y 8 T 6 4 z 6 6 6 z 6 z 2 6 6 9 2 6 q = 5 [ q &.L.y.k.P.mXaXbXkXzXyXzXyX",
"[.[.[.[.[.|.[.|.|.|.5X=X5.1.p.Z e h f Y Q Q R Y ! ! G F f f z # z z 6 6 6 6 6 6 z = 2 e e 2 # l VXCXJ.  %.f.d.T.cXaXbXxXzXzXzXyX",
"].].].].[.[.].|.|.|..X:Xb.x.4., B f K Q W Q R ! G ! Y F g f 6 = 4 z 6 6 e 6 6 6 6 - & 2 q -   D.qX:. .a + o.i.R.cXaXxXxXaXjXbXtX",
"Q.!./.^.^.^.^.].[.[..X:Xa.3.t d Y f Y Q W ! ! Y ! f F G G 8 7 # = z 6 6 6 q 6 6 6 6 - 2 $ j XXCX&.2 j d   M O.I.mXaXaXaXyXyXyX9X",
"!.U.!.Q.]./.].].^.|.iX;X5.X.w R G h Y W Q ! R Y Y G G ! f f 7 & & - 6 6 6 9 6 6 6 9 6 . ' ZXCXvX/ 1 - 6 ` 1Xn.I.aX0X0X0X4X5X5X4X",
"U.U.Y.!.!.!.!.]. XS.8X<X9...E Y h f E E R R R Y F f F f f f 8 # & - 2 5 6 6 9 6 6 9 7 $ ' ZX|.s.l 1 d s 7.<X*X#X4X4X4X4X{.4X-X{.",
"U.U.U.U.!.!.Q./.^.j 4.v.X.5 G G 8 G @.E Q R ! Y ! G F f g f 8 = $ = - 6 5 6 6 9 5 9 6 q 9 [ o./ & T f.:.} A.3XC.m. X4X_.{.-X(.-X",
"U.U.U.U.!.Y.Q.].G.K q 1 4 2 p a z G @.E R Q G ! G G G G f p 7 = @ = - 2 9 9 z 9 2 9 9 9 & :.XXB # l $.2 A 0.x.0.3.l.{.).(.`.(.}.",
"U.U.U.U.!.U.!.].D.J a s 3 1 3 1 = W W E R R Y ! G G F F f 8 7 6 + $ - 2 9 z 9 , 9 9 2 5 = C ~.c.l.z.z.c.M.9.4.0.0.3.k.).`.E.`.4X",
"U.U.U.!.U.!.!.^.>.I J s 2 1 & # p ~ Q R Q R ! Y ! G G g f 8 7 1 # + & - z , 5 , z 9 z $ # X O.eX<X<XeXeX#XB.M.x.z.9.3.T./.E.`.4X",
"G.G.G.G.G.P.R.U.@.H a q 2 1 # # Y W E R R Y Y ! ! g g f 7 7 7 6 # X $ = z , 6 z = # z C 6.M.l.Z.;X;X:X;X;Xn.x.x.x.9.3.7.E.E._.6X",
"j l k k k k i / ~ G p 7 1 & + 1 W Q W R R Y Y G G F g 7 6 8 7 6 & + + $ - z = = n +.B.eXeX3XA.V.%X%XZ.Z.n.n.x.z.9.8.<.6.K.R._.9X",
"0 0 r w w t r T ~ J q 7 = = + p ' R E Y Y Y Y Y F g 8 1 7 7 q 2 = X + $ & 9 A 7.$X<XeXeXeX%XA.x.z.x.x.z.8.<.9.7.8.1.D d.F.T. X6X",
"6 ; - z - ; - l W J s 2 = # + g W E Y E Y Y G Y F f 1 7 7 s 7 3 = X $ + + % 9.$X%X;X:X;X:X;XA.M.x.C.C.C.z.S n | i.d.h.h.k.T. X).",
"w.d.:.w.w.d.h.&.! f 7 6 1 # O T W E Y G Y ! Y g g 7 7 7 7 s q 3 1 $ + + @   > z.%X;X;X;XeX;X&XZ.C.A.A.M.0.4./ :.K.j.h.d.k.E. Xj.",
"sXiXrX7XrXiXgX{.J 8 6 6 = + A ' R Y Y Y Y Y g g f 1 6 7 7 s 8 7 6 m . + @ # o : v.&X%X;X;X;X<X%XZ.Z.C.x.9.O.9 g.K.j.q.d.h.E._.w.",
"_._.-X-X-X-X7X7XT 3 5 3   S p.Q E Y Y Y K K g g 7 1 7 7 8 q q 3 6 o.+ + @ @ + X b p.&X%X&X;X:X2X%XZ.C.z.a. .  &.G.h.w.q.k./.)...",
"-X6X6XrX7X8X7XsXF.4 # 1 _ A.&.! Y T Y Y K g f f 6 1 7 7 7 s q 3 e q.y o + @ @ @ o O 4.$X$X*X;X,X;X$XC.x.H.q @ U K.q.w.q.h.(.`.S ",
"nXiXm ` gXiXsXiXsX`.R.6X-XE ! Q Y K K K F F g s 1 1 3 7 q q 8 1 a ( y X + + % % @   . 4.&X$X*X*X&X$XA.i.d @ 5 5 d.q.w.q.h._.I.A ",
"ZX;.% . R.nXiX6X7X6X6X6X#.I W L L K L K F a a 7 1 2 3 7 7 q q 7 e = + + + @ @ % @ & + X | $X&X@XA.*X6.% @ 5 5 $ o.h.w.q.h._.h.C ",
"sXC 9 @ i kXiX6X4X7X7XQ.E W Q L L K g g g g s 3 6 7 7 7 7 q q 7 9 = . @ @ % % @ $ & % @ . x 5.N.*X9.@ & * 5 5 @ C d.d.d.h.7X-.A ",
"/ d 9 ; o k.kX7X7X7X6XU.Q Q L G G K G g a p q 3 1 6 7 7 8 s 7 1 6 - X O @ % % @ & % & % % X @ 5 M * @ 5 * 2 5 $ > d.d.d.j. XO.C ",
"w y 5 - o k iX_._.-X8X!.L L P G g F g a f s 3 1 7 7 7 7 q q 7 2 9 % X $ $ * & % & % % % * * * * @ * * * 5 * 5 5 = -.j.k.I.).} Z ",
"w 9 = * % . T._.E._.7X-X' G F F g g g g q s 3 1 1 7 7 7 q q 7 3 - @ . $ $ & % % % * * % * * * * 5 ; * * 5 5 5 5 # } j.h.`.`.Z Z ",
"5 1 * % & o } _.R.E.-X8X:.f f g J d s s s 3 3 3 7 7 q q s 7 5 5 $ X @ @ @ $ ; * * * * * : * * 5 5 5 5 * 5 5 5 * $ C T.k.'.K.Z Z ",
"* * $ & *   0 j.c.T.`.7X-.p g h J s a q 3 * 3 3 7 7 7 7 7 8 7 3 $ X O @ $ & * * 5 * * * * * * 5 5 5 * * 5 5 5 5 $ w T.j.).d.Z Z ",
"* * % $ & @ + -.q.q.T.`./ 1 a a s 7 3 5 * 3 3 7 3 7 q 7 s 7 7 3 & X O @ $ $ * * * * * * * * * * 5 5 5 * 5 5 5 5 - * f.Q. Xw.Z Z ",
"* * & & & $ X Z w.O.w.j.a 8 a 7 3 3 3 3 7 3 3 3 q 3 q q q 7 3 3 = @ + @ @ $ * * * * * * * : * * : * 5 * 5 5 5 5 2 @ =._.5Xh.i V ",
"& * * $ % $ . 0 ..} O.-.7 s a q 3 3 3 q 7 3 3 7 3 q q q q q 7 3 * @ @ @ $ @ * * * * * * * * * * * 5 5 5 5 5 5 5 5 @ ) E.K.*.w.-.",
"* * & $ = % X + C ` ` ` 7 f f a q q q 3 7 7 7 7 7 q q q q q 7 3 * @ @ @ @ * $ * * * * * * 5 * * * * 5 5 5 5 5 5 5 & - h.K._.K.r ",
"* * * @ % # # X w Z ( V 3 s s a J q q 3 7 7 7 7 7 q 8 q q 3 7 3 * @ @ @ @ $ $ * * * 5 * * * * * * * * 5 5 5 5 5 - & k K.6XsX} 9 ",
"* * $ $ # % O O , C Z j 2 a a a s s s q 7 3 7 7 q s 7 7 q s 3 5 1 @ @ @ @ $ $ * * * * * * * * * * 5 * * 5 5 5 5 - 9 u.T.7XE.i M "
};
