/* XPM */
static char *_5dc297d69964e4ae11132a419f82ce2Z3ii1rLjUilqqatP[] = {
/* columns rows colors chars-per-pixel */
"64 64 4 1 ",
"  c #A4A4A4",
". c #AEB8B8",
"X c #B2B2B2",
"o c #BCBCBC",
/* pixels */
"  ooooooooooooooooooooooooXXXXo  oXXXXoooooooooooooooooooooooo..",
"  oooooooXXXXXXXXXXXXXXXXXXXXXo  oXXXXXXXXXXXXXXXXXXXXXooooooo..",
"  oooooXXXXXXXXXXXXXXXXXXXXXXo    oXXXXXXXXXXXXXXXXXXXXXXooooo..",
"  ooooXXXXXXXXXXXXXXXXXXXXXXXo    oXXXXXXXXXXXXXXXXXXXXXXXoooo..",
"  oooXXXXXXXXXXXXXXXXXXXXXXXo  XX  oXXXXXXXXXXXXXXXXXXXXXXXooo..",
"  oooXXXXXXXXXXXXXXXXXXXXXXXo  XX  oXXXXXXXXXXXXXXXXXXXXXXXooo..",
"  ooXXXXXXXXXXXXXXXXXXXXXXXo  XXXX  oXXXXXXXXXXXXXXXXXXXXXXXoo..",
"  ooXXXXXXXXXXXXXXXXXXXXXXXo  XXXX  oXXXXXXXXXXXXXXXXXXXXXXXoo..",
"  oXXXXXXXXXXXXXXXXXXXXXXXo  XXXXXX  oXXXXXXXXXXXXXXXXXXXXXXXo..",
"  oXXXXXXXXXXXXXXXXXXXXXXXo  XXXXXX  oXXXXXXXXXXXXXXXXXXXXXXXo..",
"  oXXXXXXXXXXXXXXXXXXXXXXo  XXXXXXXX  oXXXXXXXXXXXXXXXXXXXXXXo..",
"  oXXXXXXXXXXXXXXXXXXXXXXo  XXXXXXXX  oXXXXXXXXXXXXXXXXXXXXXXo..",
"  oXXXXXXXXXXXXXXXXXXXXXo  XXXXXXXXXX  oXXXXXXXXXXXXXXXXXXXXXo..",
"  XXXXXXXXXXXXXXXXXXXXXXo  XXXXXXXXXX  oXXXXXXXXXXXXXXXXXXXXXX..",
"  XXXXXXXXXXXXXXXXXXXXXo  XXXXXXXXXXXX  oXXXXXXXXXXXXXXXXXXXXX..",
"  XXXXXXXXXXXXXXXXXXXXXo  XXXXXXXXXXXX  oXXXXXXXXXXXXXXXXXXXXX..",
"  XXXXXXXXXXXXXXXXXXXXo  XXXXXXXXXXXXXX  oXXXXXXXXXXXXXXXXXXXX..",
"  XXXXXXXXXXXXXXXXXXXXo  XXXXXXXXXXXXXX  oXXXXXXXXXXXXXXXXXXXX..",
"  XXXXXXXXXXXXXXXXXXXo  XXXXXXXXXXXXXXXX  oXXXXXXXXXXXXXXXXXXX..",
"  XXXXXXXXXXXXXXXXXXXo  XXXXXXXXXXXXXXXX  oXXXXXXXXXXXXXXXXXXX..",
"  XXXXXXXXXXXXXXXXXXo  XXXXXXXXXXXXXXXXXX  oXXXXXXXXXXXXXXXXXX..",
"  XXXXXXXXXXXXXXXXXXo  XXXXXXXXXXXXXXXXXX  oXXXXXXXXXXXXXXXXXX..",
"  XXXXXXXXXXXXXXXXXo  XXXXXXXXXXXXXXXXXXXX  oXXXXXXXXXXXXXXXXX..",
"  XXXXXXXXXXXXXXXXXo  XXXXXXXXXXXXXXXXXXXX  oXXXXXXXXXXXXXXXXX..",
"  XXXXXXXXXXXXXXXXo  XXXXXXXXXXXXXXXXXXXXXX  oXXXXXXXXXXXXXXXX..",
"  XXXXXXXXXXXXXXXXo  XXXXXXXXXXXXXXXXXXXXXX  oXXXXXXXXXXXXXXXX..",
"  XXXXXXXXXXXXXXXo  XXXXXXXXXXXXXXXXXXXXXXXX  oXXXXXXXXXXXXXXX..",
"  XXXXXXXXXXXXXXXo  XXXXXXXXXXXXXXXXXXXXXXXX  oXXXXXXXXXXXXXXX..",
"  XXXXXXXXXXXXXXo  XXXXXXXXXXXXXXXXXXXXXXXXXX  oXXXXXXXXXXXXXX..",
"  XXXXXXXXXXXXXXo  XXXXXXXXXXXXXXXXXXXXXXXXXX  oXXXXXXXXXXXXXX..",
"  XXXXXXXXXXXXXo  XXXXXXXXXXXXXXXXXXXXXXXXXXXX  oXXXXXXXXXXXXX..",
"  XXXXXXXXXXXXXo  XXXXXXXXXXXXXXXXXXXXXXXXXXXX  oXXXXXXXXXXXXX..",
"  XXXXXXXXXXXXo  XXXXXXXXXXXXXXXXXXXXXXXXXXXXXX  oXXXXXXXXXXXX..",
"  XXXXXXXXXXXXo  XXXXXXXXXXXXXXXXXXXXXXXXXXXXXX  oXXXXXXXXXXXX..",
"  XXXXXXXXXXXo  XXXXXXXXXXXXXXXXXXXXXXXXXXXXXXXX  oXXXXXXXXXXX..",
"  XXXXXXXXXXXo  XXXXXXXXXXXXXXXXXXXXXXXXXXXXXXXX  oXXXXXXXXXXX..",
"  XXXXXXXXXXo  XXXXXXXXXXXXXXXXXXXXXXXXXXXXXXXXXX  oXXXXXXXXXX..",
"  XXXXXXXXXXo  XXXXXXXXXXXXXXXXXXXXXXXXXXXXXXXXXX  oXXXXXXXXXX..",
"  XXXXXXXXXo  XXXXXXXXXXXXXXXXXXXXXXXXXXXXXXXXXXXX  oXXXXXXXXX..",
"  XXXXXXXXXo  XXXXXXXXXXXXXXXXXXXXXXXXXXXXXXXXXXXX  oXXXXXXXXX..",
"  XXXXXXXXo  XXXXXXXXXXXXXXXXXXXXXXXXXXXXXXXXXXXXXX  oXXXXXXXX..",
"  XXXXXXXXo  XXXXXXXXXXXXXXXXXXXXXXXXXXXXXXXXXXXXXX  oXXXXXXXX..",
"  XXXXXXXo  XXXXXXXXXXXXXXXXXXXXXXXXXXXXXXXXXXXXXXXX  oXXXXXXX..",
"  XXXXXXXo  XXXXXXXXXXXXXXXXXXXXXXXXXXXXXXXXXXXXXXXX  oXXXXXXX..",
"  XXXXXXo  XXXXXXXXXXXXXXXXXXXXXXXXXXXXXXXXXXXXXXXXXX  oXXXXXX..",
"  XXXXXXo  XXXXXXXXXXXXXXXXXXXXXXXXXXXXXXXXXXXXXXXXXX  oXXXXXX..",
"  XXXXXo  XXXXXXXXXXXXXXXXXXXXXXXXXXXXXXXXXXXXXXXXXXXX  oXXXXX..",
"  XXXXXo  XXXXXXXXXXXXXXXXXXXXXXXXXXXXXXXXXXXXXXXXXXXX  oXXXXX..",
"  XXXXo  XXXXXXXXXXXXXXXXXXXXXXXXXXXXXXXXXXXXXXXXXXXXXX  oXXXX..",
"  XXXXo  XXXXXXXXXXXXXXXXXXXXXXXXXXXXXXXXXXXXXXXXXXXXXX  oXXXX..",
"  XXXo  XXXXXXXXXXXXXXXXXXXXXXXXXXXXXXXXXXXXXXXXXXXXXXXX  oXXX..",
"  XXXo  XXXXXXXXXXXXXXXXXXXXXXXXXXXXXXXXXXXXXXXXXXXXXXXX  oXXX..",
"  XXo  XXXXXXXXXXXXXXXXXXXXXXXXXXXXXXXXXXXXXXXXXXXXXXXXXX  oXX..",
"  XXo  XXXXXXXXXXXXXXXXXXXXXXXXXXXXXXXXXXXXXXXXXXXXXXXXXX  oXX..",
"  Xo  XXXXXXXXXXXXXXXXXXXXXXXXXXXXXXXXXXXXXXXXXXXXXXXXXXXX  oX..",
"  Xo  XXXXXXXXXXXXXXXXXXXXXXXXXXXXXXXXXXXXXXXXXXXXXXXXXXXX  oX..",
"  o  XXXXXXXXXXXXXXXXXXXXXXXXXXXXXXXXXXXXXXXXXXXXXXXXXXXXXX  o..",
"  o  XXXXXXXXXXXXXXXXXXXXXXXXXXXXXXXXXXXXXXXXXXXXXXXXXXXXXX  o..",
"    XXXXXXXXXXXXXXXXXXXXXXXXXXXXXXXXXXXXXXXXXXXXXXXXXXXXXXXX  ..",
" o  XXXXXXXXXXXXXXXXXXXXXXXXXXXXXXXXXXXXXXXXXXXXXXXXXXXXXXXX  o.",
" o XXXXXXXXXXXXXXXXXXXXXXXXXXXXXXXXXXXXXXXXXXXXXXXXXXXXXXXXXX o.",
" o XXXXXXXXXXXXXXXXXXXXXXXXXXXXXXXXXXXXXXXXXXXXXXXXXXXXXXXXXX o.",
"  ooo                                                      ooo  ",
"                                                                "
};
