/* XPM */
static char *_b10fb0cea964d1281f65a9d06d66d70bhFMxirAncAiUO7h[] = {
/* columns rows colors chars-per-pixel */
"16 16 2 1 ",
"  c gray20",
". c gray40",
/* pixels */
"................",
".               ",
".               ",
".               ",
".               ",
".               ",
".               ",
".               ",
".               ",
".               ",
".               ",
".               ",
".               ",
".               ",
".               ",
".               "
};
