/* XPM */
static char *ae6e9103a3d34097bcc1e2a4314f0630YVOBrFDZC1CN1242[] = {
/* columns rows colors chars-per-pixel */
"64 64 7 1 ",
"  c #323232",
". c #4A4444",
"X c #717171",
"o c gray47",
"O c #A4A4A4",
"+ c #B2B2B2",
"@ c #BCBCBC",
/* pixels */
"XXXXXXXXXXXXXXXXXXXXXXXXXXXXXXXXXXXXXXXXXXXXXXXXXXXXXXXXXXXXXXXX",
"XooooooooooooooooooooooooooooooooooooooooooooooooooooooooooooooX",
"XooooooooooooooooooooooooooooooooooooooooooooooooooooooooooooooX",
"XooooooooooooooooooooooooooooooooooooooooooooooooooooooooooooooX",
"XooooooooooooooooooooooooooooooooooooooooooooooooooooooooooooooX",
"XooooooooooooooooooooooooooooooooooooooooooooooooooooooooooooooX",
"XooooooooooooooooooooooooooooooooooooooooooooooooooooooooooooooX",
"XooooooooooooooooooooooooooooooooooooooooooooooooooooooooooooooX",
"Xooooooo                                                oooooooX",
"Xooooooo .............................................. oooooooX",
"Xooooooo .XXXXXXXXXXXXXXXXXXXXXXXXXXXXXXXXXXXXXXXXXXXX. oooooooX",
"Xooooooo .XooooooooooooooooooooooooooooooooooooooooooX. oooooooX",
"Xooooooo .XooooooooooooooooooooooooooooooooooooooooooX. oooooooX",
"Xooooooo .XooooooooooooooooooooooooooooooooooooooooooX. oooooooX",
"Xooooooo .XooooooooooooooooooooooooooooooooooooooooooX. oooooooX",
"Xooooooo .XooooooooooooooooooooooooooooooooooooooooooX. oooooooX",
"Xooooooo .XooooooooooooooooooooooooooooooooooooooooooX. oooooooX",
"Xooooooo .XooooooooooooooooooooooooooooooooooooooooooX. oooooooX",
"Xooooooo .Xooooooo                            oooooooX. oooooooX",
"Xooooooo .Xooooooo .......................... oooooooX. oooooooX",
"Xooooooo .Xooooooo .@OO++++++++++++++++++OO@. oooooooX. oooooooX",
"Xooooooo .Xooooooo .@OO++++++++++++++++++OO@. oooooooX. oooooooX",
"Xooooooo .Xooooooo .OO++++++++++++++++++++OO. oooooooX. oooooooX",
"Xooooooo .Xooooooo .OO++++++++++++++++++++OO. oooooooX. oooooooX",
"Xooooooo .Xooooooo .O++++++++++++++++++++++O. oooooooX. oooooooX",
"Xooooooo .Xooooooo .O++++++++++++++++++++++O. oooooooX. oooooooX",
"Xooooooo .Xooooooo .++++++++++++++++++++++++. oooooooX. oooooooX",
"Xooooooo .Xooooooo .++++++++++++++++++++++++. oooooooX. oooooooX",
"Xooooooo .Xooooooo .++++++++++++++++++++++++. oooooooX. oooooooX",
"Xooooooo .Xooooooo .++++++++++++++++++++++++. oooooooX. oooooooX",
"Xooooooo .Xooooooo .++++++++++++++++++++++++. oooooooX. oooooooX",
"Xooooooo .Xooooooo .++++++++++++++++++++++++. oooooooX. oooooooX",
"Xooooooo .Xooooooo .++++++++++++++++++++++++. oooooooX. oooooooX",
"Xooooooo .Xooooooo .++++++++++++++++++++++++. oooooooX. oooooooX",
"Xooooooo .Xooooooo .++++++++++++++++++++++++. oooooooX. oooooooX",
"Xooooooo .Xooooooo .++++++++++++++++++++++++. oooooooX. oooooooX",
"Xooooooo .Xooooooo .++++++++++++++++++++++++. oooooooX. oooooooX",
"Xooooooo .Xooooooo .++++++++++++++++++++++++. oooooooX. oooooooX",
"Xooooooo .Xooooooo .++++++++++++++++++++++++. oooooooX. oooooooX",
"Xooooooo .Xooooooo .++++++++++++++++++++++++. oooooooX. oooooooX",
"Xooooooo .Xooooooo .++++++++++++++++++++++++. oooooooX. oooooooX",
"Xooooooo .Xooooooo .++++++++++++++++++++++++. oooooooX. oooooooX",
"Xooooooo .Xooooooo .++++++++++++++++++++++++. oooooooX. oooooooX",
"Xooooooo .Xooooooo .++++++++++++++++++++++++. oooooooX. oooooooX",
"Xooooooo .Xooooooo .......................... oooooooX. oooooooX",
"Xooooooo .Xooooooo                            oooooooX. oooooooX",
"Xooooooo .XooooooooooooooooooooooooooooooooooooooooooX. oooooooX",
"Xooooooo .XooooooooooooooooooooooooooooooooooooooooooX. oooooooX",
"Xooooooo .XooooooooooooooooooooooooooooooooooooooooooX. oooooooX",
"Xooooooo .XooooooooooooooooooooooooooooooooooooooooooX. oooooooX",
"Xooooooo .XooooooooooooooooooooooooooooooooooooooooooX. oooooooX",
"Xooooooo .XooooooooooooooooooooooooooooooooooooooooooX. oooooooX",
"Xooooooo .XooooooooooooooooooooooooooooooooooooooooooX. oooooooX",
"Xooooooo .XXXXXXXXXXXXXXXXXXXXXXXXXXXXXXXXXXXXXXXXXXXX. oooooooX",
"Xooooooo .............................................. oooooooX",
"Xooooooo                                                oooooooX",
"XooooooooooooooooooooooooooooooooooooooooooooooooooooooooooooooX",
"XooooooooooooooooooooooooooooooooooooooooooooooooooooooooooooooX",
"XooooooooooooooooooooooooooooooooooooooooooooooooooooooooooooooX",
"XooooooooooooooooooooooooooooooooooooooooooooooooooooooooooooooX",
"XooooooooooooooooooooooooooooooooooooooooooooooooooooooooooooooX",
"XooooooooooooooooooooooooooooooooooooooooooooooooooooooooooooooX",
"XooooooooooooooooooooooooooooooooooooooooooooooooooooooooooooooX",
"XXXXXXXXXXXXXXXXXXXXXXXXXXXXXXXXXXXXXXXXXXXXXXXXXXXXXXXXXXXXXXXX"
};
