/* XPM */
static char *_9a8764374524828bf82b05cfb33d2dfpOmn5pOHJyDtJDhm[] = {
/* columns rows colors chars-per-pixel */
"64 64 8 1 ",
"  c gray21",
". c #393939",
"X c #3F3F3F",
"o c #494949",
"O c gray30",
"+ c #6D6D6D",
"@ c gray59",
"# c #A4A4A4",
/* pixels */
"    ................................. .. ...                    ",
"     .................................. .. ..                   ",
" OOOOOOOOOOOOOOOOOO..+@@#####@+. OOOOOOOOOOoOOOOOOO  +@@#####@+ ",
" OOOO++++++++OOOOOO..++@@@##@@+  OOOO++++++++OOOOOO  ++@@@##@@+ ",
" OOO++++++++++++OOX. ++@@@@@@++  OOO++++++++++++OOX  ++@@@@@@++ ",
" XO++++++++++++++XX .+++@@@@+++..XO++++++++++++++XX  +++@@@@+++ ",
" XXX++++++++++++XXX  ++++@@@+++  XXX++++++++++++XXX  ++++@@@+++ ",
" XXXXX++++++++XXXXX. ++++++++++  XXXXX++++++++.oXXX  ++++++++++ ",
"                .   . . .    .. ..  .   ..    .                 ",
"                  . .     ..       .  .    ..                   ",
"o  +++++++ooooX  o+++@+@@@@@+@++o  +++++++ooooX  o+++@+@@@@@+@++",
"o  ++++++oooooX  o+++++++@@@++++o .++++++oooooX..o+++++++@@@++++",
"o  +++oooooooXX  oo++++++++++++oo. +++oooooooXX  oo++++++++++++o",
"o  +ooooooooXXX  ooo++++++++++ooo  +ooooooooXXX  ooo++++++++++oo",
"o  XooooooXXXXX  oooo++++++++oooo. .ooooooXXXXX..oooo++++++++ooo",
"o  XXXXXXXXXX.o .oooooooooooooooo  oXXXXXXXXXXX  ooooooooooooooo",
"  .           . .... .   .   . . ..    ..    ..   . .           ",
". . ..       . ..  ..  . . .   .    ..    ..    . .           . ",
"####### .#############+  ++++++++++++@@  #############+. ###@@##",
"@@#####. ++#####++++++o. ++++++@@@@@@@@..++#####++++++o .##@@@@@",
"@@@@@##..o+++######++oo .++++@@@@@@@@@#  o+++######++oo  #+@@@@@",
"@@@@@@# .oo+++++++++ooo  #+@@@@@@@@@@##  oo+++++++++ooo. ++++@@@",
"@@@@@@@. ooo++++++++ooo. ##@@@@@@@#####..ooo++++++++ooo .++++++@",
"+++++@@..oooo++++++oooo .###@@#########  oooo++++++oooo  +++++++",
" .    .. .. . .... ...    . .   .   ..    ..   . ..      . .   .",
" . ..   . ... .  . .   .. .   . . .    ..    . .    ..     . .  ",
"X. ##########..++++++++++oooooooX .##########. ++++++++++ooooooo",
"X .@@######@@ .++++++ooooooooooXX  @@######@@  ++++++ooooooooooo",
"X..+@@####@@+  ++++oooooooooooXXX  +@@####@@+  ++++oooooooooooXX",
"o  ++@@@@@@++  ++ooooooooooooXXXX. ++@@@@@@++  ++oooooooooooo.XX",
". .++++@@@+++  XoXXXXXooooooXXXXX .++++@@@+++  oXXo.XXooooooXXXX",
"X .++@@@@@@++..X.XXXXXXXXXXXXXXXX. ++@@@@@@++  XXXXXXXXXXXXXXXXX",
" ...   ..    ..  .. .    .. .       ..    . ....   ..   . .   . ",
".. ...    ..          ..      .. ..    ..  ..  . .    . .   .  .",
"OOOOOOOOOOOOOOOOO..+@@#####@+  OOOOOOOOOOOOOOOOOO .+@@#####@+..O",
"OOO++++++++OOOOOO  ++@@@##@@+. oOOO++++++++OOOOOO. ++@@@##@@+ .O",
"OO++++++++++++OOX. ++@@@@@@++. oOO++++++++++++OOX..++@@@@@@++..O",
"O++++++++++++++XX  +++@@@@+++  oO++++++++++++++Xo .+++@@@@+++  X",
"XX++++++++++++XXX..++++@@@+++  XXX++++++++++++XX.  ++++@@@+++..X",
"XXXX++++++++XXXXX  ++++++++++. XXXXX++++++++XXXXX  ++++++++++ .X",
".  ..........  .    ..   .   . .  .   ..   . .   ..  .... . ... ",
"................ ..    . . .   .. .      .     .    .   ... . ..",
" +++++++ooooo..o+++@+@@@@@+@++o  +++++++oooo. .o+++@+@@@@@+@++o ",
".++++++ooooo. .o+++++++@@@++++o  ++++++oooooo  o+++++++@@@++++o.",
" +++oooooooXX..oo++++++++++++oo  +++oooooooXX  oo++++++++++++oo.",
" +ooooooooXXX..ooo++++++++++ooo  +ooooooooXXX  ooo++++++++++ooo ",
".XooooooXXXXX..oooo++++++++oooo  .oooooooXXXX  oooo++++++++oooo.",
".XXXXX.oXXXXX..oooooooooooooooo. oXXXXXX.XXXX  oooooooooooooooo.",
"  ........................... ....               .  .   .  .  ..",
"............................. .   .                .  . . . ... ",
"#####..#############+..###@@#########  #############+. ###@@####",
"#####..++#####++++++o..##@@@@@@@#####  ++#####++++++o  ##@@@@@@@",
"@@@##..o+++######++oo..#+@@@@@@@@@@##  o+++######++oo  #+@@@@@@@",
"@@@@#..oo+++++++++ooo..++++@@@@@@@@@#  oo+++++++++ooo  ++++@@@@@",
"@@@@@..ooo++++++++ooo..++++++@@@@@@@@  ooo++++++++ooo  ++++++@@@",
"+++@@..oooo++++++oooo..++++++++++++@@  oooo++++++oooo  +++++++++",
" .........................  ...... ..                       .. .",
"........................... ..  . .. .                       . .",
".##########..++++++++++ooooooo. .##########  ++++++++++oooooooo ",
".@@######@@..++++++oooooooooooo  @@######@@  ++++++ooooooooooXX ",
".+@@####@@+..++++oooooooooooXXX..+@@####@@+  ++++oooooooooooXXX ",
".++@@@@@@++..++ooooooooooooXXXX..++@@@@@@++  ++ooooooooooooXXXX ",
" ++++@@@+++..XXXXXXXooooooXXXXX..++++@@@+++  XXXXXXXooooooXXXXX ",
" ++@@@@@@++..XXXXXXXXXXXXXXXXXX..++@@@@@@++  XXXXXXXXXXXXXXXXXX "
};
