/* XPM */
static char *a99e343ff93b4a83a6002c945ec6508b07Cu6HBMPosQc6Y5[] = {
/* columns rows colors chars-per-pixel */
"64 64 9 1 ",
"  c #323232",
". c #373737",
"X c #393939",
"o c #3F3F3F",
"O c #494949",
"+ c gray30",
"@ c #6D6D6D",
"# c gray59",
"$ c #A4A4A4",
/* pixels */
"++++++++++++++++++++++++++++++++++++++++++++++++++++++++++++++++",
"++++++++++++++++++++++++++++++++++++++++++++++++++++++++++++++++",
"++++++++++++++++++++++++++++++++++++++++++++++++++++++++++++++++",
"+++$$$$$$$$$$$$$$$$$$$$$$$$$$$$$$$$$$$$$$$$$$$$$$$$$$$$$$$$$$+++",
"+++$ @++    @@++    @@++    @@++    @@++    @@++    @@++    $+++",
"+++$  @+    @@@+    @@@+    @@@+    @@@+    @@@+    @@@+   @$+++",
"+++$   +    ++++    ++O+    ++++    ++++    ++++    ++++  @+$+++",
"+++$   oooooooooooooooooooooooooooooooooooooooooooooooooo+++$+++",
"+++$+++o@@@@@@@@@@@@@@@@@@@@@@@@@@@@@@@@@@@@@@@@@@@@@@@@o   $+++",
"+++$+@+o@@@@@@@@@@@@@@@@@@@@@@@@@@@@@@@@@@@@@@@@@@@@@@@@o   $+++",
"+++$@@+o@@############################################@@o   $+++",
"+++$@@+o@@#oooooooooooooooooooooooooooooooooooooooooo#@@o   $+++",
"+++$   o@@#o########################################o#@@o+@@$+++",
"+++$   o@@#o#@@@@@@@@@@@@@@@@@@@@@@@@@@@@@@@@@@@@@@#o#@@o+@@$+++",
"+++$   o@@#o#@@@@@@@@@@@@@@@@@@@@@@@@@@@@@@@@@@@@@@#o#@@o+@+$+++",
"+++$   o@@#o#@@X... .... ......XX.X.XXXXXXXXXXXXX@@#o#@@o+++$+++",
"+++$+++o@@#o#@@XO..oooooooooooo..OOOOOOOOOOOOOOO.@@#o#@@o   $+++",
"+++$+@+o@@#o#@@XOO.oooooOOOOOOo .OOOO@@@@@@@@OO..@@#o#@@o   $O++",
"+++$@@+o@@#o#@@XOO@oooOOOOOOOO@..OOO@@@@@@@@@@...@@#o#@@o   $+++",
"+++$@@+o@@#o#@@XO@@@oOOOOOOO@@@..OO@@@@@@@@@@ooo.@@#o#@@o   $+++",
"+++$   o@@#o#@@XO@@@@OOOO@@@@@@..O@@@@###@@@oooo.@@#o#@@O+@@$+++",
"+++$   o@@#o#@@XO@@@@#OO@@@@@@@. O@@#@#####OOooo @@#o#@@X+@@$+++",
"+++$   o@@#o#@@XO@@@@#....................OOOOoo.@@#o#@@oO@+$+++",
"+++$   o@@#o#@@XO@@@##....................OOOOoo.@@#o#@@O+++$+++",
"+++$+++o@@#o#@@XO@@@##..@@@@ooooo..@@@@@..@OOOOo.@@#o#@@X   $+++",
"+++$+@+o@@#o#@@XO@@@##..@#@@@@ooo..@@@#@..@@OOOo.@@#o#@@o   $O++",
"+++$@@+o@@#o#@@XO@@@@@..@@@@@@@+o..@@@@@..@@OOOo @@#o#@@o   $+++",
"+++$@@+o@@#o#@@XOO@@@#..@@@@@@+++..@@@@@..@@OOOo.@@#o#@@o   $+++",
"+++$   o@@#o#@@.OOO@@@..@@@@@++++..@@@@o..@@@OOo.@@#o#@@O+@@$+++",
"+++$   o@@#o#@@XOOOO@@........+++..+@@@o..@@@OOo.@@#o#@@X+@@$+++",
"+++$   o@@#o#@@.OOOOOO............+++@oo..@@@@oo.@@#o#@@oO@+$+++",
"+++$   o@@#o#@@X........oooO++....++++oo.. ......@@#X#@@O+++$+++",
"+++$+++o@@#o#@@.. ......oo++++....+++ooo... .....@@#o#@@o   $+++",
"+++$+@+o@@#o#@@.oo@@@@..oo@+++............OOOOOOX@@#o#@@o   $+++",
"+++$@@+o@@#o#@@.oOO@@@..o@@@++.++++.......@@OOOO.@@#o#@@o   $+++",
"+++$@@+o@@#o#@@.oOO@@@..o@@@@..++++@@@@@..@@@OOOX@@#o#@@o   $+++",
"+++$   o@@#o#@@ oOOO@@..@@@@@..O++@@@@@@..#@@@OOX@@#o#@@o+@@$+++",
"+++$   o@@#o#@@.oOOO@@..@@@@@..o+@@@@@@@..@@@@@OX@@#o#@@o+@@$+++",
"+++$   o@@#o#@@.oOOO@@..@@@@@..ooo@@@@@@..##@@@OX@@#o#@@o+@+$+++",
"+++$   o@@#o#@@.oOOOO@..@@@@@..ooooo@@@@..##@@@OX@@#o#@@o+++$+++",
"+++$+++o@@#o#@@.ooOOOO....................##@@@OX@@#o#@@o   $+++",
"+++$+@+o@@#o#@@ ooOOOO....................#@@@@OX@@#o#@@o   $+++",
"+++$@@+o@@#o#@@.oooOOO####@#@@O..@@@@@@@OOO@@@@OX@@#o#@@o   $+++",
"+++$@@+o@@#o#@@.ooooO@@###@@@@O..@@@@@@OOOOO@@@OX@@#o#@@o   $+++",
"+++$   o@@#o#@@.oooo@@@@@@@@@OO..@@@OOOOOOOoo@@OX@@#o#@@o+@@$+++",
"+++$   o@@#o#@@....@@@@@@@@@OOO..@OOOOOOOOooo.OOX@@#o#@@o+@@$+++",
"+++$   o@@#o#@@ ..O@@@@@@@@OOOOX oOOOOOOooooo..OX@@#o#@@o+@+$+++",
"+++$   o@@#o#@@.OOOOOOOOOOOOOOO..oooooooooooo..OX@@#o#@@o+++$+++",
"+++$+++o@@#o#@@.XXXXXXXXXXXX.X.XX. .... .... ....@@#o#@@o   $+++",
"+++$+@+o@@#o#@@@@@@@@@@@@@@@@@@@@@@@@@@@@@@@@@@@@@@#o#@@o   $+++",
"+++$@@+o@@#o#@@@@@@@@@@@@@@@@@@@@@@@@@@@@@@@@@@@@@@#o#@@o   $+++",
"+++$@@+o@@#o########################################o#@@o   $+++",
"+++$   o@@#oooooooooooooooooooooooooooooooooooooooooo#@@o+@@$+++",
"+++$   o@@############################################@@o+@@$+++",
"+++$   o@@@@@@@@@@@@@@@@@@@@@@@@@@@@@@@@@@@@@@@@@@@@@@@@o+@+$+++",
"+++$   o@@@@@@@@@@@@@@@@@@@@@@@@@@@@@@@@@@@@@@@@@@@@@@@@o+++$+++",
"+++$+++oooooooooooooooooooooooooooooooooooooooooooooooooo   $+++",
"+++$+@+ ++++    ++++    ++++    ++++    ++++    ++++    ++  $+++",
"+++$@@  +@@@    +@@@    +@@@    +@@@    +@@@    +@@@    +@@ $+++",
"+++$@   ++@@    ++@@    ++@@    ++@@    ++@@    ++@@    ++@@$+++",
"+++$$$$$$$$$$$$$$$$$$$$$$$$$$$$$$$$$$$$$$$$$$$$$$$$$$$$$$$$$$+++",
"++++++++++++++++++++++++++++++++++++++++++++++++++++++++++++++++",
"++++++++++++++++++++++++++++++++++++++++++++++++++++++++++++++++",
"++++++++++++++++++++++++++++++++++++++++++++++++++++++++++++++++"
};
